{"title":"Trespass 2011 DVD9rip English Klam","uid":9548324,"size":1589063508,"categoryP":"video","categoryS":"movies","magnet":"?xt=urn:btih:05fa707bcbf37f423edc00bd4ddaf46b2b84023b&amp;dn=Trespass+2011+DVD9rip+English+Klam&amp;tr=udp%3A%2F%2Ftracker.openbittorrent.com%3A80&amp;tr=udp%3A%2F%2Fopen.demonii.com%3A1337&amp;tr=udp%3A%2F%2Ftracker.coppersurfer.tk%3A6969&amp;tr=udp%3A%2F%2Fexodus.desync.com%3A6969","seeders":0,"leechers":1,"uploader":"Klambake","files":-1,"time":1391180535,"description":"[img] http://imageshack.com/a/img600/8471/q239.jpg[/img]\n\nWith: Nicolas Cage, Nicole Kidman and Cam Gigandet\n\nEen echtpaar (Nicolas Cage &amp; Nicole Kidman) wordt gegijzeld door vier agressieve misdadigers die een grote slag willen slaan. Er ontstaan echter complicaties die voortvloeien uit een reeks aan onverwachte ontdekkingen van verraad en bedrog. Er blijken namelijk banden te zijn tussen de familie en de gijzelaars.\n\nAs they're held for ransom, a husband and wife's predicament grows more dire amid the discovery of betrayal and deception.\n &lt;a href=&quot;\nhttp://www.imdb.com/title/tt1674784&quot; rel=&quot;nofollow&quot; target=&quot;_NEW&quot;&gt;\nhttp://www.imdb.com/title/tt1674784&lt;/a&gt;\t\n\n--------------------- Dutch Friends 4ever ---------------------\n---------------------------------------------------------------\n- Bezoek ook eens mijn vrienden op: &lt;a href=&quot; http://www.Film-Test.nl&quot; rel=&quot;nofollow&quot; target=&quot;_NEW&quot;&gt; http://www.Film-Test.nl&lt;/a&gt; --\n----- voor mijn Nederlandse Sync. ondertitels ---- en meer ----\n------- http://www.Film-Test.nl ---- Over Films en meer -------\n---------------------------------------------------------------\n\nGeneral:\n\nComplete name                    : G:KlambakeTresPassTresPass.avi\nFormat                           : AVI\nFormat/Info                      : Audio Video Interleave\nFile size                        : 1.48 GiB\nDuration                         : 1h 30mn\nOverall bit rate                 : 2 336 Kbps\n\nVideo:\n\nFormat                           : MPEG-4 Visual\nFormat profile                   : Simple@L3\nFormat settings, BVOP            : No\nFormat settings, QPel            : No\nFormat settings, GMC             : No warppoints\nFormat settings, Matrix          : Default (H.263)\nCodec ID                         : XVID\nCodec ID/Hint                    : XviD\nDuration                         : 1h 30mn\nBit rate                         : 1 877 Kbps\nWidth                            : 720 pixels\nHeight                           : 304 pixels\nDisplay aspect ratio             : 2.35:1\nFrame rate                       : 23.976 fps\nColor space                      : YUV\nChroma subsampling               : 4:2:0\nBit depth                        : 8 bits\nScan type                        : Progressive\nCompression mode                 : Lossy\nBits/(Pixel*Frame)               : 0.358\nStream size                      : 1.19 GiB (80%)\nWriting library                  : XviD 1.1.2 (UTC 2006-11-01)\n\nAudio:\n\nFormat                           : AC-3\nFormat/Info                      : Audio Coding 3\nMode extension                   : CM (complete main)\nCodec ID                         : 2000\nDuration                         : 1h 30mn\nBit rate mode                    : Constant\nBit rate                         : 448 Kbps\nChannel(s)                       : 6 channels\nChannel positions                : Front: L C R, Side: L R, LFE\nSampling rate                    : 48.0 KHz\nBit depth                        : 16 bits\nCompression mode                 : Lossy\nStream size                      : 291 MiB (19%)\nAlignment                        : Aligned on interleaves\nInterleave, duration             : 32 ms (0.77 video frame)\nInterleave, preload duration     : 512 ms\n\n","torrent":{"xt":"urn:btih:05fa707bcbf37f423edc00bd4ddaf46b2b84023b","amp;dn":"Trespass+2011+DVD9rip+English+Klam","amp;tr":["udp%3A%2F%2Ftracker.openbittorrent.com%3A80","udp%3A%2F%2Fopen.demonii.com%3A1337","udp%3A%2F%2Ftracker.coppersurfer.tk%3A6969","udp%3A%2F%2Fexodus.desync.com%3A6969"],"infoHash":"05fa707bcbf37f423edc00bd4ddaf46b2b84023b","infoHashBuffer":{"type":"Buffer","data":[5,250,112,123,203,243,127,66,62,220,0,189,77,218,244,107,43,132,2,59]},"announce":[],"urlList":[]}}